<mxfile host="app.diagrams.net" agent="Mozilla/5.0 (Windows NT 10.0; Win64; x64) AppleWebKit/537.36 (KHTML, like Gecko) Chrome/140.0.0.0 Safari/537.36" version="28.2.1">
  <diagram name="Page-1" id="-Z8uPkYC_VJc0NKGcOIi">
    <mxGraphModel dx="2951" dy="1584" grid="1" gridSize="10" guides="1" tooltips="1" connect="1" arrows="1" fold="1" page="1" pageScale="1" pageWidth="1920" pageHeight="1200" math="0" shadow="0">
      <root>
        <mxCell id="0" />
        <mxCell id="1" parent="0" />
        <mxCell id="GvEmqiyRO5GbLfrJit3r-1" value="" style="shape=table;startSize=0;container=1;collapsible=0;childLayout=tableLayout;fontSize=16;fontStyle=2" vertex="1" parent="1">
          <mxGeometry x="320" y="315" width="730" height="50" as="geometry" />
        </mxCell>
        <mxCell id="GvEmqiyRO5GbLfrJit3r-2" value="" style="shape=tableRow;horizontal=0;startSize=0;swimlaneHead=0;swimlaneBody=0;strokeColor=inherit;top=0;left=0;bottom=0;right=0;collapsible=0;dropTarget=0;fillColor=none;points=[[0,0.5],[1,0.5]];portConstraint=eastwest;fontSize=16;" vertex="1" parent="GvEmqiyRO5GbLfrJit3r-1">
          <mxGeometry width="730" height="50" as="geometry" />
        </mxCell>
        <mxCell id="GvEmqiyRO5GbLfrJit3r-3" value="&lt;font&gt;&lt;u&gt;accountID&lt;/u&gt;&lt;/font&gt;" style="shape=partialRectangle;html=1;whiteSpace=wrap;connectable=0;strokeColor=inherit;overflow=hidden;fillColor=none;top=0;left=0;bottom=0;right=0;pointerEvents=1;fontSize=16;" vertex="1" parent="GvEmqiyRO5GbLfrJit3r-2">
          <mxGeometry width="122" height="50" as="geometry">
            <mxRectangle width="122" height="50" as="alternateBounds" />
          </mxGeometry>
        </mxCell>
        <mxCell id="GvEmqiyRO5GbLfrJit3r-4" value="accountName" style="shape=partialRectangle;html=1;whiteSpace=wrap;connectable=0;strokeColor=inherit;overflow=hidden;fillColor=none;top=0;left=0;bottom=0;right=0;pointerEvents=1;fontSize=16;" vertex="1" parent="GvEmqiyRO5GbLfrJit3r-2">
          <mxGeometry x="122" width="121" height="50" as="geometry">
            <mxRectangle width="121" height="50" as="alternateBounds" />
          </mxGeometry>
        </mxCell>
        <mxCell id="GvEmqiyRO5GbLfrJit3r-5" value="accountType" style="shape=partialRectangle;html=1;whiteSpace=wrap;connectable=0;strokeColor=inherit;overflow=hidden;fillColor=none;top=0;left=0;bottom=0;right=0;pointerEvents=1;fontSize=16;" vertex="1" parent="GvEmqiyRO5GbLfrJit3r-2">
          <mxGeometry x="243" width="122" height="50" as="geometry">
            <mxRectangle width="122" height="50" as="alternateBounds" />
          </mxGeometry>
        </mxCell>
        <mxCell id="GvEmqiyRO5GbLfrJit3r-14" value="balance" style="shape=partialRectangle;html=1;whiteSpace=wrap;connectable=0;strokeColor=inherit;overflow=hidden;fillColor=none;top=0;left=0;bottom=0;right=0;pointerEvents=1;fontSize=16;" vertex="1" parent="GvEmqiyRO5GbLfrJit3r-2">
          <mxGeometry x="365" width="122" height="50" as="geometry">
            <mxRectangle width="122" height="50" as="alternateBounds" />
          </mxGeometry>
        </mxCell>
        <mxCell id="GvEmqiyRO5GbLfrJit3r-15" value="currency" style="shape=partialRectangle;html=1;whiteSpace=wrap;connectable=0;strokeColor=inherit;overflow=hidden;fillColor=none;top=0;left=0;bottom=0;right=0;pointerEvents=1;fontSize=16;" vertex="1" parent="GvEmqiyRO5GbLfrJit3r-2">
          <mxGeometry x="487" width="121" height="50" as="geometry">
            <mxRectangle width="121" height="50" as="alternateBounds" />
          </mxGeometry>
        </mxCell>
        <mxCell id="GvEmqiyRO5GbLfrJit3r-16" value="&lt;i&gt;&lt;u&gt;&lt;font style=&quot;color: rgb(111, 0, 0);&quot;&gt;userID&lt;/font&gt;&lt;/u&gt;&lt;/i&gt;" style="shape=partialRectangle;html=1;whiteSpace=wrap;connectable=0;strokeColor=inherit;overflow=hidden;fillColor=none;top=0;left=0;bottom=0;right=0;pointerEvents=1;fontSize=16;" vertex="1" parent="GvEmqiyRO5GbLfrJit3r-2">
          <mxGeometry x="608" width="122" height="50" as="geometry">
            <mxRectangle width="122" height="50" as="alternateBounds" />
          </mxGeometry>
        </mxCell>
        <mxCell id="GvEmqiyRO5GbLfrJit3r-17" value="" style="shape=table;startSize=0;container=1;collapsible=0;childLayout=tableLayout;fontSize=16;fontStyle=2" vertex="1" parent="1">
          <mxGeometry x="320" y="195" width="810" height="50" as="geometry" />
        </mxCell>
        <mxCell id="GvEmqiyRO5GbLfrJit3r-18" value="" style="shape=tableRow;horizontal=0;startSize=0;swimlaneHead=0;swimlaneBody=0;strokeColor=inherit;top=0;left=0;bottom=0;right=0;collapsible=0;dropTarget=0;fillColor=none;points=[[0,0.5],[1,0.5]];portConstraint=eastwest;fontSize=16;" vertex="1" parent="GvEmqiyRO5GbLfrJit3r-17">
          <mxGeometry width="810" height="50" as="geometry" />
        </mxCell>
        <mxCell id="GvEmqiyRO5GbLfrJit3r-19" value="&lt;u&gt;userID&lt;/u&gt;" style="shape=partialRectangle;html=1;whiteSpace=wrap;connectable=0;strokeColor=inherit;overflow=hidden;fillColor=none;top=0;left=0;bottom=0;right=0;pointerEvents=1;fontSize=16;" vertex="1" parent="GvEmqiyRO5GbLfrJit3r-18">
          <mxGeometry width="130" height="50" as="geometry">
            <mxRectangle width="130" height="50" as="alternateBounds" />
          </mxGeometry>
        </mxCell>
        <mxCell id="GvEmqiyRO5GbLfrJit3r-20" value="firstName" style="shape=partialRectangle;html=1;whiteSpace=wrap;connectable=0;strokeColor=inherit;overflow=hidden;fillColor=none;top=0;left=0;bottom=0;right=0;pointerEvents=1;fontSize=16;" vertex="1" parent="GvEmqiyRO5GbLfrJit3r-18">
          <mxGeometry x="130" width="128" height="50" as="geometry">
            <mxRectangle width="128" height="50" as="alternateBounds" />
          </mxGeometry>
        </mxCell>
        <mxCell id="GvEmqiyRO5GbLfrJit3r-21" value="middleName" style="shape=partialRectangle;html=1;whiteSpace=wrap;connectable=0;strokeColor=inherit;overflow=hidden;fillColor=none;top=0;left=0;bottom=0;right=0;pointerEvents=1;fontSize=16;" vertex="1" parent="GvEmqiyRO5GbLfrJit3r-18">
          <mxGeometry x="258" width="130" height="50" as="geometry">
            <mxRectangle width="130" height="50" as="alternateBounds" />
          </mxGeometry>
        </mxCell>
        <mxCell id="GvEmqiyRO5GbLfrJit3r-22" value="lastName" style="shape=partialRectangle;html=1;whiteSpace=wrap;connectable=0;strokeColor=inherit;overflow=hidden;fillColor=none;top=0;left=0;bottom=0;right=0;pointerEvents=1;fontSize=16;" vertex="1" parent="GvEmqiyRO5GbLfrJit3r-18">
          <mxGeometry x="388" width="129" height="50" as="geometry">
            <mxRectangle width="129" height="50" as="alternateBounds" />
          </mxGeometry>
        </mxCell>
        <mxCell id="GvEmqiyRO5GbLfrJit3r-23" value="email" style="shape=partialRectangle;html=1;whiteSpace=wrap;connectable=0;strokeColor=inherit;overflow=hidden;fillColor=none;top=0;left=0;bottom=0;right=0;pointerEvents=1;fontSize=16;" vertex="1" parent="GvEmqiyRO5GbLfrJit3r-18">
          <mxGeometry x="517" width="128" height="50" as="geometry">
            <mxRectangle width="128" height="50" as="alternateBounds" />
          </mxGeometry>
        </mxCell>
        <mxCell id="GvEmqiyRO5GbLfrJit3r-24" value="hashedPassword" style="shape=partialRectangle;html=1;whiteSpace=wrap;connectable=0;strokeColor=inherit;overflow=hidden;fillColor=none;top=0;left=0;bottom=0;right=0;pointerEvents=1;fontSize=16;" vertex="1" parent="GvEmqiyRO5GbLfrJit3r-18">
          <mxGeometry x="645" width="165" height="50" as="geometry">
            <mxRectangle width="165" height="50" as="alternateBounds" />
          </mxGeometry>
        </mxCell>
        <mxCell id="GvEmqiyRO5GbLfrJit3r-26" value="" style="shape=table;startSize=0;container=1;collapsible=0;childLayout=tableLayout;fontSize=16;fontStyle=2" vertex="1" parent="1">
          <mxGeometry x="320" y="425" width="682" height="50" as="geometry" />
        </mxCell>
        <mxCell id="GvEmqiyRO5GbLfrJit3r-27" value="" style="shape=tableRow;horizontal=0;startSize=0;swimlaneHead=0;swimlaneBody=0;strokeColor=inherit;top=0;left=0;bottom=0;right=0;collapsible=0;dropTarget=0;fillColor=none;points=[[0,0.5],[1,0.5]];portConstraint=eastwest;fontSize=16;" vertex="1" parent="GvEmqiyRO5GbLfrJit3r-26">
          <mxGeometry width="682" height="50" as="geometry" />
        </mxCell>
        <mxCell id="GvEmqiyRO5GbLfrJit3r-28" value="&lt;u&gt;categoryID&lt;/u&gt;" style="shape=partialRectangle;html=1;whiteSpace=wrap;connectable=0;strokeColor=inherit;overflow=hidden;fillColor=none;top=0;left=0;bottom=0;right=0;pointerEvents=1;fontSize=16;" vertex="1" parent="GvEmqiyRO5GbLfrJit3r-27">
          <mxGeometry width="130" height="50" as="geometry">
            <mxRectangle width="130" height="50" as="alternateBounds" />
          </mxGeometry>
        </mxCell>
        <mxCell id="GvEmqiyRO5GbLfrJit3r-30" value="categoryName" style="shape=partialRectangle;html=1;whiteSpace=wrap;connectable=0;strokeColor=inherit;overflow=hidden;fillColor=none;top=0;left=0;bottom=0;right=0;pointerEvents=1;fontSize=16;" vertex="1" parent="GvEmqiyRO5GbLfrJit3r-27">
          <mxGeometry x="130" width="130" height="50" as="geometry">
            <mxRectangle width="130" height="50" as="alternateBounds" />
          </mxGeometry>
        </mxCell>
        <mxCell id="GvEmqiyRO5GbLfrJit3r-31" value="categoryType" style="shape=partialRectangle;html=1;whiteSpace=wrap;connectable=0;strokeColor=inherit;overflow=hidden;fillColor=none;top=0;left=0;bottom=0;right=0;pointerEvents=1;fontSize=16;" vertex="1" parent="GvEmqiyRO5GbLfrJit3r-27">
          <mxGeometry x="260" width="129" height="50" as="geometry">
            <mxRectangle width="129" height="50" as="alternateBounds" />
          </mxGeometry>
        </mxCell>
        <mxCell id="GvEmqiyRO5GbLfrJit3r-32" value="description" style="shape=partialRectangle;html=1;whiteSpace=wrap;connectable=0;strokeColor=inherit;overflow=hidden;fillColor=none;top=0;left=0;bottom=0;right=0;pointerEvents=1;fontSize=16;" vertex="1" parent="GvEmqiyRO5GbLfrJit3r-27">
          <mxGeometry x="389" width="128" height="50" as="geometry">
            <mxRectangle width="128" height="50" as="alternateBounds" />
          </mxGeometry>
        </mxCell>
        <mxCell id="GvEmqiyRO5GbLfrJit3r-33" value="&lt;i&gt;&lt;u&gt;&lt;font style=&quot;color: rgb(111, 0, 0);&quot;&gt;userID&lt;/font&gt;&lt;/u&gt;&lt;/i&gt;" style="shape=partialRectangle;html=1;whiteSpace=wrap;connectable=0;strokeColor=inherit;overflow=hidden;fillColor=none;top=0;left=0;bottom=0;right=0;pointerEvents=1;fontSize=16;" vertex="1" parent="GvEmqiyRO5GbLfrJit3r-27">
          <mxGeometry x="517" width="165" height="50" as="geometry">
            <mxRectangle width="165" height="50" as="alternateBounds" />
          </mxGeometry>
        </mxCell>
        <mxCell id="GvEmqiyRO5GbLfrJit3r-34" value="" style="shape=table;startSize=0;container=1;collapsible=0;childLayout=tableLayout;fontSize=16;fontStyle=0" vertex="1" parent="1">
          <mxGeometry x="320" y="535" width="820" height="50" as="geometry" />
        </mxCell>
        <mxCell id="GvEmqiyRO5GbLfrJit3r-35" value="" style="shape=tableRow;horizontal=0;startSize=0;swimlaneHead=0;swimlaneBody=0;strokeColor=inherit;top=0;left=0;bottom=0;right=0;collapsible=0;dropTarget=0;fillColor=none;points=[[0,0.5],[1,0.5]];portConstraint=eastwest;fontSize=16;" vertex="1" parent="GvEmqiyRO5GbLfrJit3r-34">
          <mxGeometry width="820" height="50" as="geometry" />
        </mxCell>
        <mxCell id="GvEmqiyRO5GbLfrJit3r-36" value="&lt;u&gt;budgetID&lt;/u&gt;" style="shape=partialRectangle;html=1;whiteSpace=wrap;connectable=0;strokeColor=inherit;overflow=hidden;fillColor=none;top=0;left=0;bottom=0;right=0;pointerEvents=1;fontSize=16;" vertex="1" parent="GvEmqiyRO5GbLfrJit3r-35">
          <mxGeometry width="80" height="50" as="geometry">
            <mxRectangle width="80" height="50" as="alternateBounds" />
          </mxGeometry>
        </mxCell>
        <mxCell id="GvEmqiyRO5GbLfrJit3r-37" value="budgetName" style="shape=partialRectangle;html=1;whiteSpace=wrap;connectable=0;strokeColor=inherit;overflow=hidden;fillColor=none;top=0;left=0;bottom=0;right=0;pointerEvents=1;fontSize=16;" vertex="1" parent="GvEmqiyRO5GbLfrJit3r-35">
          <mxGeometry x="80" width="100" height="50" as="geometry">
            <mxRectangle width="100" height="50" as="alternateBounds" />
          </mxGeometry>
        </mxCell>
        <mxCell id="GvEmqiyRO5GbLfrJit3r-38" value="amountLimit" style="shape=partialRectangle;html=1;whiteSpace=wrap;connectable=0;strokeColor=inherit;overflow=hidden;fillColor=none;top=0;left=0;bottom=0;right=0;pointerEvents=1;fontSize=16;" vertex="1" parent="GvEmqiyRO5GbLfrJit3r-35">
          <mxGeometry x="180" width="100" height="50" as="geometry">
            <mxRectangle width="100" height="50" as="alternateBounds" />
          </mxGeometry>
        </mxCell>
        <mxCell id="GvEmqiyRO5GbLfrJit3r-39" value="currentAmount" style="shape=partialRectangle;html=1;whiteSpace=wrap;connectable=0;strokeColor=inherit;overflow=hidden;fillColor=none;top=0;left=0;bottom=0;right=0;pointerEvents=1;fontSize=16;" vertex="1" parent="GvEmqiyRO5GbLfrJit3r-35">
          <mxGeometry x="280" width="120" height="50" as="geometry">
            <mxRectangle width="120" height="50" as="alternateBounds" />
          </mxGeometry>
        </mxCell>
        <mxCell id="GvEmqiyRO5GbLfrJit3r-40" value="startDate" style="shape=partialRectangle;html=1;whiteSpace=wrap;connectable=0;strokeColor=inherit;overflow=hidden;fillColor=none;top=0;left=0;bottom=0;right=0;pointerEvents=1;fontSize=16;" vertex="1" parent="GvEmqiyRO5GbLfrJit3r-35">
          <mxGeometry x="400" width="90" height="50" as="geometry">
            <mxRectangle width="90" height="50" as="alternateBounds" />
          </mxGeometry>
        </mxCell>
        <mxCell id="GvEmqiyRO5GbLfrJit3r-41" value="endDate" style="shape=partialRectangle;html=1;whiteSpace=wrap;connectable=0;strokeColor=inherit;overflow=hidden;fillColor=none;top=0;left=0;bottom=0;right=0;pointerEvents=1;fontSize=16;" vertex="1" parent="GvEmqiyRO5GbLfrJit3r-35">
          <mxGeometry x="490" width="80" height="50" as="geometry">
            <mxRectangle width="80" height="50" as="alternateBounds" />
          </mxGeometry>
        </mxCell>
        <mxCell id="GvEmqiyRO5GbLfrJit3r-42" value="currency" style="shape=partialRectangle;html=1;whiteSpace=wrap;connectable=0;strokeColor=inherit;overflow=hidden;fillColor=none;top=0;left=0;bottom=0;right=0;pointerEvents=1;fontSize=16;" vertex="1" parent="GvEmqiyRO5GbLfrJit3r-35">
          <mxGeometry x="570" width="80" height="50" as="geometry">
            <mxRectangle width="80" height="50" as="alternateBounds" />
          </mxGeometry>
        </mxCell>
        <mxCell id="GvEmqiyRO5GbLfrJit3r-43" value="&lt;i&gt;&lt;u&gt;&lt;font style=&quot;color: rgb(0, 29, 188);&quot;&gt;categoryID&lt;/font&gt;&lt;/u&gt;&lt;/i&gt;" style="shape=partialRectangle;html=1;whiteSpace=wrap;connectable=0;strokeColor=inherit;overflow=hidden;fillColor=none;top=0;left=0;bottom=0;right=0;pointerEvents=1;fontSize=16;" vertex="1" parent="GvEmqiyRO5GbLfrJit3r-35">
          <mxGeometry x="650" width="100" height="50" as="geometry">
            <mxRectangle width="100" height="50" as="alternateBounds" />
          </mxGeometry>
        </mxCell>
        <mxCell id="GvEmqiyRO5GbLfrJit3r-44" value="&lt;i&gt;&lt;u&gt;&lt;font style=&quot;color: rgb(111, 0, 0);&quot;&gt;userID&lt;/font&gt;&lt;/u&gt;&lt;/i&gt;" style="shape=partialRectangle;html=1;whiteSpace=wrap;connectable=0;strokeColor=inherit;overflow=hidden;fillColor=none;top=0;left=0;bottom=0;right=0;pointerEvents=1;fontSize=16;" vertex="1" parent="GvEmqiyRO5GbLfrJit3r-35">
          <mxGeometry x="750" width="70" height="50" as="geometry">
            <mxRectangle width="70" height="50" as="alternateBounds" />
          </mxGeometry>
        </mxCell>
        <mxCell id="GvEmqiyRO5GbLfrJit3r-106" style="edgeStyle=orthogonalEdgeStyle;rounded=0;orthogonalLoop=1;jettySize=auto;html=1;exitX=0.877;exitY=1.02;exitDx=0;exitDy=0;exitPerimeter=0;" edge="1" parent="1" source="GvEmqiyRO5GbLfrJit3r-46" target="GvEmqiyRO5GbLfrJit3r-84">
          <mxGeometry relative="1" as="geometry">
            <Array as="points">
              <mxPoint x="1478" y="930" />
              <mxPoint x="300" y="930" />
              <mxPoint x="300" y="1010" />
            </Array>
          </mxGeometry>
        </mxCell>
        <mxCell id="GvEmqiyRO5GbLfrJit3r-107" style="edgeStyle=orthogonalEdgeStyle;rounded=0;orthogonalLoop=1;jettySize=auto;html=1;entryX=0;entryY=0.2;entryDx=0;entryDy=0;exitX=0.795;exitY=0.004;exitDx=0;exitDy=0;exitPerimeter=0;entryPerimeter=0;fillColor=#0050ef;strokeColor=#001DBC;" edge="1" parent="1" source="GvEmqiyRO5GbLfrJit3r-46" target="GvEmqiyRO5GbLfrJit3r-27">
          <mxGeometry relative="1" as="geometry">
            <Array as="points">
              <mxPoint x="1369" y="605" />
              <mxPoint x="290" y="605" />
              <mxPoint x="290" y="435" />
            </Array>
          </mxGeometry>
        </mxCell>
        <mxCell id="GvEmqiyRO5GbLfrJit3r-109" style="edgeStyle=orthogonalEdgeStyle;rounded=0;orthogonalLoop=1;jettySize=auto;html=1;entryX=0;entryY=0.5;entryDx=0;entryDy=0;exitX=0.725;exitY=0.016;exitDx=0;exitDy=0;exitPerimeter=0;" edge="1" parent="1" source="GvEmqiyRO5GbLfrJit3r-46" target="GvEmqiyRO5GbLfrJit3r-2">
          <mxGeometry relative="1" as="geometry">
            <Array as="points">
              <mxPoint x="1277" y="625" />
              <mxPoint x="250" y="625" />
              <mxPoint x="250" y="340" />
            </Array>
          </mxGeometry>
        </mxCell>
        <mxCell id="GvEmqiyRO5GbLfrJit3r-45" value="" style="shape=table;startSize=0;container=1;collapsible=0;childLayout=tableLayout;fontSize=16;fontStyle=0" vertex="1" parent="1">
          <mxGeometry x="320" y="655" width="1320" height="50" as="geometry" />
        </mxCell>
        <mxCell id="GvEmqiyRO5GbLfrJit3r-46" value="" style="shape=tableRow;horizontal=0;startSize=0;swimlaneHead=0;swimlaneBody=0;strokeColor=inherit;top=0;left=0;bottom=0;right=0;collapsible=0;dropTarget=0;fillColor=none;points=[[0,0.5],[1,0.5]];portConstraint=eastwest;fontSize=16;" vertex="1" parent="GvEmqiyRO5GbLfrJit3r-45">
          <mxGeometry width="1320" height="50" as="geometry" />
        </mxCell>
        <mxCell id="GvEmqiyRO5GbLfrJit3r-47" value="&lt;u&gt;transactionID&lt;/u&gt;" style="shape=partialRectangle;html=1;whiteSpace=wrap;connectable=0;strokeColor=inherit;overflow=hidden;fillColor=none;top=0;left=0;bottom=0;right=0;pointerEvents=1;fontSize=16;" vertex="1" parent="GvEmqiyRO5GbLfrJit3r-46">
          <mxGeometry width="118" height="50" as="geometry">
            <mxRectangle width="118" height="50" as="alternateBounds" />
          </mxGeometry>
        </mxCell>
        <mxCell id="GvEmqiyRO5GbLfrJit3r-48" value="date" style="shape=partialRectangle;html=1;whiteSpace=wrap;connectable=0;strokeColor=inherit;overflow=hidden;fillColor=none;top=0;left=0;bottom=0;right=0;pointerEvents=1;fontSize=16;" vertex="1" parent="GvEmqiyRO5GbLfrJit3r-46">
          <mxGeometry x="118" width="62" height="50" as="geometry">
            <mxRectangle width="62" height="50" as="alternateBounds" />
          </mxGeometry>
        </mxCell>
        <mxCell id="GvEmqiyRO5GbLfrJit3r-49" value="amount" style="shape=partialRectangle;html=1;whiteSpace=wrap;connectable=0;strokeColor=inherit;overflow=hidden;fillColor=none;top=0;left=0;bottom=0;right=0;pointerEvents=1;fontSize=16;" vertex="1" parent="GvEmqiyRO5GbLfrJit3r-46">
          <mxGeometry x="180" width="95" height="50" as="geometry">
            <mxRectangle width="95" height="50" as="alternateBounds" />
          </mxGeometry>
        </mxCell>
        <mxCell id="GvEmqiyRO5GbLfrJit3r-50" value="transactionName" style="shape=partialRectangle;html=1;whiteSpace=wrap;connectable=0;strokeColor=inherit;overflow=hidden;fillColor=none;top=0;left=0;bottom=0;right=0;pointerEvents=1;fontSize=16;" vertex="1" parent="GvEmqiyRO5GbLfrJit3r-46">
          <mxGeometry x="275" width="147" height="50" as="geometry">
            <mxRectangle width="147" height="50" as="alternateBounds" />
          </mxGeometry>
        </mxCell>
        <mxCell id="GvEmqiyRO5GbLfrJit3r-51" value="transactionType" style="shape=partialRectangle;html=1;whiteSpace=wrap;connectable=0;strokeColor=inherit;overflow=hidden;fillColor=none;top=0;left=0;bottom=0;right=0;pointerEvents=1;fontSize=16;" vertex="1" parent="GvEmqiyRO5GbLfrJit3r-46">
          <mxGeometry x="422" width="148" height="50" as="geometry">
            <mxRectangle width="148" height="50" as="alternateBounds" />
          </mxGeometry>
        </mxCell>
        <mxCell id="GvEmqiyRO5GbLfrJit3r-52" value="description" style="shape=partialRectangle;html=1;whiteSpace=wrap;connectable=0;strokeColor=inherit;overflow=hidden;fillColor=none;top=0;left=0;bottom=0;right=0;pointerEvents=1;fontSize=16;" vertex="1" parent="GvEmqiyRO5GbLfrJit3r-46">
          <mxGeometry x="570" width="106" height="50" as="geometry">
            <mxRectangle width="106" height="50" as="alternateBounds" />
          </mxGeometry>
        </mxCell>
        <mxCell id="GvEmqiyRO5GbLfrJit3r-114" value="isRecurrent" style="shape=partialRectangle;html=1;whiteSpace=wrap;connectable=0;strokeColor=inherit;overflow=hidden;fillColor=none;top=0;left=0;bottom=0;right=0;pointerEvents=1;fontSize=16;" vertex="1" parent="GvEmqiyRO5GbLfrJit3r-46">
          <mxGeometry x="676" width="105" height="50" as="geometry">
            <mxRectangle width="105" height="50" as="alternateBounds" />
          </mxGeometry>
        </mxCell>
        <mxCell id="GvEmqiyRO5GbLfrJit3r-113" value="paymentMethod" style="shape=partialRectangle;html=1;whiteSpace=wrap;connectable=0;strokeColor=inherit;overflow=hidden;fillColor=none;top=0;left=0;bottom=0;right=0;pointerEvents=1;fontSize=16;" vertex="1" parent="GvEmqiyRO5GbLfrJit3r-46">
          <mxGeometry x="781" width="129" height="50" as="geometry">
            <mxRectangle width="129" height="50" as="alternateBounds" />
          </mxGeometry>
        </mxCell>
        <mxCell id="GvEmqiyRO5GbLfrJit3r-53" value="&lt;i style=&quot;&quot;&gt;&lt;u style=&quot;&quot;&gt;accountID&lt;/u&gt;&lt;/i&gt;" style="shape=partialRectangle;html=1;whiteSpace=wrap;connectable=0;strokeColor=inherit;overflow=hidden;fillColor=none;top=0;left=0;bottom=0;right=0;pointerEvents=1;fontSize=16;" vertex="1" parent="GvEmqiyRO5GbLfrJit3r-46">
          <mxGeometry x="910" width="90" height="50" as="geometry">
            <mxRectangle width="90" height="50" as="alternateBounds" />
          </mxGeometry>
        </mxCell>
        <mxCell id="GvEmqiyRO5GbLfrJit3r-54" value="&lt;i&gt;&lt;u&gt;&lt;font style=&quot;color: rgb(0, 29, 188);&quot;&gt;categoryID&lt;/font&gt;&lt;/u&gt;&lt;/i&gt;" style="shape=partialRectangle;html=1;whiteSpace=wrap;connectable=0;strokeColor=inherit;overflow=hidden;fillColor=none;top=0;left=0;bottom=0;right=0;pointerEvents=1;fontSize=16;" vertex="1" parent="GvEmqiyRO5GbLfrJit3r-46">
          <mxGeometry x="1000" width="99" height="50" as="geometry">
            <mxRectangle width="99" height="50" as="alternateBounds" />
          </mxGeometry>
        </mxCell>
        <mxCell id="GvEmqiyRO5GbLfrJit3r-55" value="&lt;u&gt;&lt;i&gt;recurrentID&lt;/i&gt;&lt;/u&gt;" style="shape=partialRectangle;html=1;whiteSpace=wrap;connectable=0;strokeColor=inherit;overflow=hidden;fillColor=none;top=0;left=0;bottom=0;right=0;pointerEvents=1;fontSize=16;" vertex="1" parent="GvEmqiyRO5GbLfrJit3r-46">
          <mxGeometry x="1099" width="115" height="50" as="geometry">
            <mxRectangle width="115" height="50" as="alternateBounds" />
          </mxGeometry>
        </mxCell>
        <mxCell id="GvEmqiyRO5GbLfrJit3r-62" value="&lt;span style=&quot;font-family: monospace; font-size: 0px; text-align: start; text-wrap-mode: nowrap;&quot;&gt;&lt;font style=&quot;color: rgb(111, 0, 0);&quot;&gt;&lt;i style=&quot;font-family: Helvetica; font-size: 16px; text-align: center; text-wrap-mode: wrap;&quot;&gt;&lt;u style=&quot;&quot;&gt;userID&lt;/u&gt;&lt;/i&gt;3CmxGraphModel%3E%3Croot%3E%3CmxCell%20id%3D%220%22%2F%3E%3CmxCell%20id%3D%221%22%20parent%3D%220%22%2F%3E%3CmxCell%20id%3D%222%22%20value%3D%22%26lt%3Bi%26gt%3B%26lt%3Bu%26gt%3BuserID%26lt%3B%2Fu%26gt%3B%26lt%3B%2Fi%26gt%3B%22%20style%3D%22shape%3DpartialRectangle%3Bhtml%3D1%3BwhiteSpace%3Dwrap%3Bconnectable%3D0%3BstrokeColor%3Dinherit%3Boverflow%3Dhidden%3BfillColor%3Dnone%3Btop%3D0%3Bleft%3D0%3Bbottom%3D0%3Bright%3D0%3BpointerEvents%3D1%3BfontSize%3D16%3B%22%20vertex%3D%221%22%20parent%3D%221%22%3E%3CmxGeometry%20x%3D%22881%22%20y%3D%22550%22%20width%3D%2279%22%20height%3D%2250%22%20as%3D%22geometry%22%3E%3CmxRectangle%20width%3D%2279%22%20height%3D%2250%22%20as%3D%22alternateBounds%22%2F%3E%3C%2FmxGeometry%3E%3C%2FmxCell%3E%3C%2Froot%3E%3C%2FmxGraphModel%3E&lt;/font&gt;&lt;/span&gt;" style="shape=partialRectangle;html=1;whiteSpace=wrap;connectable=0;strokeColor=inherit;overflow=hidden;fillColor=none;top=0;left=0;bottom=0;right=0;pointerEvents=1;fontSize=16;" vertex="1" parent="GvEmqiyRO5GbLfrJit3r-46">
          <mxGeometry x="1214" width="106" height="50" as="geometry">
            <mxRectangle width="106" height="50" as="alternateBounds" />
          </mxGeometry>
        </mxCell>
        <mxCell id="GvEmqiyRO5GbLfrJit3r-56" value="Account" style="text;html=1;align=left;verticalAlign=middle;resizable=0;points=[];autosize=1;strokeColor=none;fillColor=none;" vertex="1" parent="1">
          <mxGeometry x="320" y="285" width="70" height="30" as="geometry" />
        </mxCell>
        <mxCell id="GvEmqiyRO5GbLfrJit3r-58" value="User" style="text;html=1;align=left;verticalAlign=middle;resizable=0;points=[];autosize=1;strokeColor=none;fillColor=none;" vertex="1" parent="1">
          <mxGeometry x="320" y="165" width="50" height="30" as="geometry" />
        </mxCell>
        <mxCell id="GvEmqiyRO5GbLfrJit3r-59" value="Category" style="text;html=1;align=left;verticalAlign=middle;resizable=0;points=[];autosize=1;strokeColor=none;fillColor=none;" vertex="1" parent="1">
          <mxGeometry x="320" y="395" width="70" height="30" as="geometry" />
        </mxCell>
        <mxCell id="GvEmqiyRO5GbLfrJit3r-60" value="Budget" style="text;html=1;align=left;verticalAlign=middle;resizable=0;points=[];autosize=1;strokeColor=none;fillColor=none;" vertex="1" parent="1">
          <mxGeometry x="320" y="505" width="60" height="30" as="geometry" />
        </mxCell>
        <mxCell id="GvEmqiyRO5GbLfrJit3r-61" value="Transaction" style="text;html=1;align=left;verticalAlign=middle;resizable=0;points=[];autosize=1;strokeColor=none;fillColor=none;" vertex="1" parent="1">
          <mxGeometry x="320" y="625" width="90" height="30" as="geometry" />
        </mxCell>
        <mxCell id="GvEmqiyRO5GbLfrJit3r-64" value="Income" style="text;html=1;align=left;verticalAlign=middle;resizable=0;points=[];autosize=1;strokeColor=none;fillColor=none;" vertex="1" parent="1">
          <mxGeometry x="320" y="735" width="60" height="30" as="geometry" />
        </mxCell>
        <mxCell id="GvEmqiyRO5GbLfrJit3r-66" value="" style="shape=table;startSize=0;container=1;collapsible=0;childLayout=tableLayout;fontSize=16;fontStyle=0" vertex="1" parent="1">
          <mxGeometry x="320" y="765" width="250" height="50" as="geometry" />
        </mxCell>
        <mxCell id="GvEmqiyRO5GbLfrJit3r-67" value="" style="shape=tableRow;horizontal=0;startSize=0;swimlaneHead=0;swimlaneBody=0;strokeColor=inherit;top=0;left=0;bottom=0;right=0;collapsible=0;dropTarget=0;fillColor=none;points=[[0,0.5],[1,0.5]];portConstraint=eastwest;fontSize=16;" vertex="1" parent="GvEmqiyRO5GbLfrJit3r-66">
          <mxGeometry width="250" height="50" as="geometry" />
        </mxCell>
        <mxCell id="GvEmqiyRO5GbLfrJit3r-68" value="&lt;u&gt;transactionID&lt;/u&gt;" style="shape=partialRectangle;html=1;whiteSpace=wrap;connectable=0;strokeColor=inherit;overflow=hidden;fillColor=none;top=0;left=0;bottom=0;right=0;pointerEvents=1;fontSize=16;" vertex="1" parent="GvEmqiyRO5GbLfrJit3r-67">
          <mxGeometry width="120" height="50" as="geometry">
            <mxRectangle width="120" height="50" as="alternateBounds" />
          </mxGeometry>
        </mxCell>
        <mxCell id="GvEmqiyRO5GbLfrJit3r-69" value="incomeSource" style="shape=partialRectangle;html=1;whiteSpace=wrap;connectable=0;strokeColor=inherit;overflow=hidden;fillColor=none;top=0;left=0;bottom=0;right=0;pointerEvents=1;fontSize=16;" vertex="1" parent="GvEmqiyRO5GbLfrJit3r-67">
          <mxGeometry x="120" width="130" height="50" as="geometry">
            <mxRectangle width="130" height="50" as="alternateBounds" />
          </mxGeometry>
        </mxCell>
        <mxCell id="GvEmqiyRO5GbLfrJit3r-78" value="Expense" style="text;html=1;align=left;verticalAlign=middle;resizable=0;points=[];autosize=1;strokeColor=none;fillColor=none;" vertex="1" parent="1">
          <mxGeometry x="320" y="835" width="70" height="30" as="geometry" />
        </mxCell>
        <mxCell id="GvEmqiyRO5GbLfrJit3r-79" value="" style="shape=table;startSize=0;container=1;collapsible=0;childLayout=tableLayout;fontSize=16;fontStyle=0" vertex="1" parent="1">
          <mxGeometry x="320" y="865" width="250" height="50" as="geometry" />
        </mxCell>
        <mxCell id="GvEmqiyRO5GbLfrJit3r-80" value="" style="shape=tableRow;horizontal=0;startSize=0;swimlaneHead=0;swimlaneBody=0;strokeColor=inherit;top=0;left=0;bottom=0;right=0;collapsible=0;dropTarget=0;fillColor=none;points=[[0,0.5],[1,0.5]];portConstraint=eastwest;fontSize=16;" vertex="1" parent="GvEmqiyRO5GbLfrJit3r-79">
          <mxGeometry width="250" height="50" as="geometry" />
        </mxCell>
        <mxCell id="GvEmqiyRO5GbLfrJit3r-81" value="&lt;u&gt;transactionID&lt;/u&gt;" style="shape=partialRectangle;html=1;whiteSpace=wrap;connectable=0;strokeColor=inherit;overflow=hidden;fillColor=none;top=0;left=0;bottom=0;right=0;pointerEvents=1;fontSize=16;" vertex="1" parent="GvEmqiyRO5GbLfrJit3r-80">
          <mxGeometry width="120" height="50" as="geometry">
            <mxRectangle width="120" height="50" as="alternateBounds" />
          </mxGeometry>
        </mxCell>
        <mxCell id="GvEmqiyRO5GbLfrJit3r-82" value="vendor" style="shape=partialRectangle;html=1;whiteSpace=wrap;connectable=0;strokeColor=inherit;overflow=hidden;fillColor=none;top=0;left=0;bottom=0;right=0;pointerEvents=1;fontSize=16;" vertex="1" parent="GvEmqiyRO5GbLfrJit3r-80">
          <mxGeometry x="120" width="130" height="50" as="geometry">
            <mxRectangle width="130" height="50" as="alternateBounds" />
          </mxGeometry>
        </mxCell>
        <mxCell id="GvEmqiyRO5GbLfrJit3r-110" style="edgeStyle=orthogonalEdgeStyle;rounded=0;orthogonalLoop=1;jettySize=auto;html=1;entryX=0;entryY=0.5;entryDx=0;entryDy=0;exitX=0.887;exitY=0.012;exitDx=0;exitDy=0;exitPerimeter=0;fillColor=#0050ef;strokeColor=#001DBC;" edge="1" parent="1" source="GvEmqiyRO5GbLfrJit3r-84" target="GvEmqiyRO5GbLfrJit3r-27">
          <mxGeometry relative="1" as="geometry">
            <Array as="points">
              <mxPoint x="1491" y="955" />
              <mxPoint x="600" y="955" />
              <mxPoint x="600" y="730" />
              <mxPoint x="290" y="730" />
              <mxPoint x="290" y="450" />
            </Array>
          </mxGeometry>
        </mxCell>
        <mxCell id="GvEmqiyRO5GbLfrJit3r-83" value="" style="shape=table;startSize=0;container=1;collapsible=0;childLayout=tableLayout;fontSize=16;fontStyle=0" vertex="1" parent="1">
          <mxGeometry x="320" y="985" width="1320" height="50" as="geometry" />
        </mxCell>
        <mxCell id="GvEmqiyRO5GbLfrJit3r-84" value="" style="shape=tableRow;horizontal=0;startSize=0;swimlaneHead=0;swimlaneBody=0;strokeColor=inherit;top=0;left=0;bottom=0;right=0;collapsible=0;dropTarget=0;fillColor=none;points=[[0,0.5],[1,0.5]];portConstraint=eastwest;fontSize=16;" vertex="1" parent="GvEmqiyRO5GbLfrJit3r-83">
          <mxGeometry width="1320" height="50" as="geometry" />
        </mxCell>
        <mxCell id="GvEmqiyRO5GbLfrJit3r-85" value="&lt;u&gt;recurrentID&lt;/u&gt;" style="shape=partialRectangle;html=1;whiteSpace=wrap;connectable=0;strokeColor=inherit;overflow=hidden;fillColor=none;top=0;left=0;bottom=0;right=0;pointerEvents=1;fontSize=16;" vertex="1" parent="GvEmqiyRO5GbLfrJit3r-84">
          <mxGeometry width="110" height="50" as="geometry">
            <mxRectangle width="110" height="50" as="alternateBounds" />
          </mxGeometry>
        </mxCell>
        <mxCell id="GvEmqiyRO5GbLfrJit3r-86" value="amount" style="shape=partialRectangle;html=1;whiteSpace=wrap;connectable=0;strokeColor=inherit;overflow=hidden;fillColor=none;top=0;left=0;bottom=0;right=0;pointerEvents=1;fontSize=16;" vertex="1" parent="GvEmqiyRO5GbLfrJit3r-84">
          <mxGeometry x="110" width="80" height="50" as="geometry">
            <mxRectangle width="80" height="50" as="alternateBounds" />
          </mxGeometry>
        </mxCell>
        <mxCell id="GvEmqiyRO5GbLfrJit3r-87" value="frequency" style="shape=partialRectangle;html=1;whiteSpace=wrap;connectable=0;strokeColor=inherit;overflow=hidden;fillColor=none;top=0;left=0;bottom=0;right=0;pointerEvents=1;fontSize=16;" vertex="1" parent="GvEmqiyRO5GbLfrJit3r-84">
          <mxGeometry x="190" width="100" height="50" as="geometry">
            <mxRectangle width="100" height="50" as="alternateBounds" />
          </mxGeometry>
        </mxCell>
        <mxCell id="GvEmqiyRO5GbLfrJit3r-88" value="startDate" style="shape=partialRectangle;html=1;whiteSpace=wrap;connectable=0;strokeColor=inherit;overflow=hidden;fillColor=none;top=0;left=0;bottom=0;right=0;pointerEvents=1;fontSize=16;" vertex="1" parent="GvEmqiyRO5GbLfrJit3r-84">
          <mxGeometry x="290" width="110" height="50" as="geometry">
            <mxRectangle width="110" height="50" as="alternateBounds" />
          </mxGeometry>
        </mxCell>
        <mxCell id="GvEmqiyRO5GbLfrJit3r-89" value="endDate" style="shape=partialRectangle;html=1;whiteSpace=wrap;connectable=0;strokeColor=inherit;overflow=hidden;fillColor=none;top=0;left=0;bottom=0;right=0;pointerEvents=1;fontSize=16;" vertex="1" parent="GvEmqiyRO5GbLfrJit3r-84">
          <mxGeometry x="400" width="90" height="50" as="geometry">
            <mxRectangle width="90" height="50" as="alternateBounds" />
          </mxGeometry>
        </mxCell>
        <mxCell id="GvEmqiyRO5GbLfrJit3r-90" value="nextDueDate" style="shape=partialRectangle;html=1;whiteSpace=wrap;connectable=0;strokeColor=inherit;overflow=hidden;fillColor=none;top=0;left=0;bottom=0;right=0;pointerEvents=1;fontSize=16;" vertex="1" parent="GvEmqiyRO5GbLfrJit3r-84">
          <mxGeometry x="490" width="140" height="50" as="geometry">
            <mxRectangle width="140" height="50" as="alternateBounds" />
          </mxGeometry>
        </mxCell>
        <mxCell id="GvEmqiyRO5GbLfrJit3r-97" value="recurrentTransactionName" style="shape=partialRectangle;html=1;whiteSpace=wrap;connectable=0;strokeColor=inherit;overflow=hidden;fillColor=none;top=0;left=0;bottom=0;right=0;pointerEvents=1;fontSize=16;" vertex="1" parent="GvEmqiyRO5GbLfrJit3r-84">
          <mxGeometry x="630" width="240" height="50" as="geometry">
            <mxRectangle width="240" height="50" as="alternateBounds" />
          </mxGeometry>
        </mxCell>
        <mxCell id="GvEmqiyRO5GbLfrJit3r-92" value="recurrentTransactionType" style="shape=partialRectangle;html=1;whiteSpace=wrap;connectable=0;strokeColor=inherit;overflow=hidden;fillColor=none;top=0;left=0;bottom=0;right=0;pointerEvents=1;fontSize=16;" vertex="1" parent="GvEmqiyRO5GbLfrJit3r-84">
          <mxGeometry x="870" width="230" height="50" as="geometry">
            <mxRectangle width="230" height="50" as="alternateBounds" />
          </mxGeometry>
        </mxCell>
        <mxCell id="GvEmqiyRO5GbLfrJit3r-93" value="&lt;u&gt;&lt;i&gt;&lt;font style=&quot;color: rgb(0, 29, 188);&quot;&gt;categoryID&lt;/font&gt;&lt;/i&gt;&lt;/u&gt;" style="shape=partialRectangle;html=1;whiteSpace=wrap;connectable=0;strokeColor=inherit;overflow=hidden;fillColor=none;top=0;left=0;bottom=0;right=0;pointerEvents=1;fontSize=16;" vertex="1" parent="GvEmqiyRO5GbLfrJit3r-84">
          <mxGeometry x="1100" width="130" height="50" as="geometry">
            <mxRectangle width="130" height="50" as="alternateBounds" />
          </mxGeometry>
        </mxCell>
        <mxCell id="GvEmqiyRO5GbLfrJit3r-94" value="&lt;span style=&quot;font-family: monospace; font-size: 0px; text-align: start; text-wrap-mode: nowrap;&quot;&gt;&lt;font style=&quot;color: rgb(111, 0, 0);&quot;&gt;&lt;i style=&quot;font-family: Helvetica; font-size: 16px; text-align: center; text-wrap-mode: wrap;&quot;&gt;&lt;u style=&quot;&quot;&gt;userID&lt;/u&gt;&lt;/i&gt;3CmxGraphModel%3E%3Croot%3E%3CmxCell%20id%3D%220%22%2F%3E%3CmxCell%20id%3D%221%22%20parent%3D%220%22%2F%3E%3CmxCell%20id%3D%222%22%20value%3D%22%26lt%3Bi%26gt%3B%26lt%3Bu%26gt%3BuserID%26lt%3B%2Fu%26gt%3B%26lt%3B%2Fi%26gt%3B%22%20style%3D%22shape%3DpartialRectangle%3Bhtml%3D1%3BwhiteSpace%3Dwrap%3Bconnectable%3D0%3BstrokeColor%3Dinherit%3Boverflow%3Dhidden%3BfillColor%3Dnone%3Btop%3D0%3Bleft%3D0%3Bbottom%3D0%3Bright%3D0%3BpointerEvents%3D1%3BfontSize%3D16%3B%22%20vertex%3D%221%22%20parent%3D%221%22%3E%3CmxGeometry%20x%3D%22881%22%20y%3D%22550%22%20width%3D%2279%22%20height%3D%2250%22%20as%3D%22geometry%22%3E%3CmxRectangle%20width%3D%2279%22%20height%3D%2250%22%20as%3D%22alternateBounds%22%2F%3E%3C%2FmxGeometry%3E%3C%2FmxCell%3E%3C%2Froot%3E%3C%2FmxGraphModel%3E&lt;/font&gt;&lt;/span&gt;" style="shape=partialRectangle;html=1;whiteSpace=wrap;connectable=0;strokeColor=inherit;overflow=hidden;fillColor=none;top=0;left=0;bottom=0;right=0;pointerEvents=1;fontSize=16;" vertex="1" parent="GvEmqiyRO5GbLfrJit3r-84">
          <mxGeometry x="1230" width="90" height="50" as="geometry">
            <mxRectangle width="90" height="50" as="alternateBounds" />
          </mxGeometry>
        </mxCell>
        <mxCell id="GvEmqiyRO5GbLfrJit3r-95" value="RecurrentTransaction" style="text;html=1;align=left;verticalAlign=middle;resizable=0;points=[];autosize=1;strokeColor=none;fillColor=none;" vertex="1" parent="1">
          <mxGeometry x="320" y="955" width="140" height="30" as="geometry" />
        </mxCell>
        <mxCell id="GvEmqiyRO5GbLfrJit3r-101" style="edgeStyle=orthogonalEdgeStyle;rounded=0;orthogonalLoop=1;jettySize=auto;html=1;exitX=1;exitY=0.5;exitDx=0;exitDy=0;fillColor=#a20025;strokeColor=#6F0000;" edge="1" parent="1" source="GvEmqiyRO5GbLfrJit3r-2" target="GvEmqiyRO5GbLfrJit3r-18">
          <mxGeometry relative="1" as="geometry">
            <Array as="points">
              <mxPoint x="1070" y="340" />
              <mxPoint x="1070" y="285" />
              <mxPoint x="300" y="285" />
              <mxPoint x="300" y="220" />
            </Array>
          </mxGeometry>
        </mxCell>
        <mxCell id="GvEmqiyRO5GbLfrJit3r-102" style="edgeStyle=orthogonalEdgeStyle;rounded=0;orthogonalLoop=1;jettySize=auto;html=1;exitX=1;exitY=0.5;exitDx=0;exitDy=0;entryX=0;entryY=0.8;entryDx=0;entryDy=0;entryPerimeter=0;fillColor=#a20025;strokeColor=#6F0000;" edge="1" parent="1" source="GvEmqiyRO5GbLfrJit3r-27" target="GvEmqiyRO5GbLfrJit3r-18">
          <mxGeometry relative="1" as="geometry">
            <Array as="points">
              <mxPoint x="1110" y="450" />
              <mxPoint x="1110" y="285" />
              <mxPoint x="300" y="285" />
              <mxPoint x="300" y="235" />
            </Array>
          </mxGeometry>
        </mxCell>
        <mxCell id="GvEmqiyRO5GbLfrJit3r-103" style="edgeStyle=orthogonalEdgeStyle;rounded=0;orthogonalLoop=1;jettySize=auto;html=1;entryX=0;entryY=0.2;entryDx=0;entryDy=0;entryPerimeter=0;exitX=1;exitY=0.5;exitDx=0;exitDy=0;fillColor=#a20025;strokeColor=#6F0000;" edge="1" parent="1" source="GvEmqiyRO5GbLfrJit3r-35" target="GvEmqiyRO5GbLfrJit3r-18">
          <mxGeometry relative="1" as="geometry">
            <Array as="points">
              <mxPoint x="1160" y="560" />
              <mxPoint x="1160" y="285" />
              <mxPoint x="300" y="285" />
              <mxPoint x="300" y="205" />
            </Array>
          </mxGeometry>
        </mxCell>
        <mxCell id="GvEmqiyRO5GbLfrJit3r-104" style="edgeStyle=orthogonalEdgeStyle;rounded=0;orthogonalLoop=1;jettySize=auto;html=1;exitX=0.959;exitY=0.02;exitDx=0;exitDy=0;entryX=0.022;entryY=1.002;entryDx=0;entryDy=0;entryPerimeter=0;exitPerimeter=0;fillColor=#a20025;strokeColor=#6F0000;" edge="1" parent="1" source="GvEmqiyRO5GbLfrJit3r-46" target="GvEmqiyRO5GbLfrJit3r-18">
          <mxGeometry relative="1" as="geometry">
            <Array as="points">
              <mxPoint x="1586" y="285" />
              <mxPoint x="338" y="285" />
            </Array>
          </mxGeometry>
        </mxCell>
        <mxCell id="GvEmqiyRO5GbLfrJit3r-105" style="edgeStyle=orthogonalEdgeStyle;rounded=0;orthogonalLoop=1;jettySize=auto;html=1;entryX=0.05;entryY=1.017;entryDx=0;entryDy=0;entryPerimeter=0;exitX=1;exitY=0.5;exitDx=0;exitDy=0;fillColor=#a20025;strokeColor=#6F0000;" edge="1" parent="1" source="GvEmqiyRO5GbLfrJit3r-84" target="GvEmqiyRO5GbLfrJit3r-18">
          <mxGeometry relative="1" as="geometry">
            <Array as="points">
              <mxPoint x="1670" y="1010" />
              <mxPoint x="1670" y="285" />
              <mxPoint x="361" y="285" />
            </Array>
          </mxGeometry>
        </mxCell>
        <mxCell id="GvEmqiyRO5GbLfrJit3r-108" style="edgeStyle=orthogonalEdgeStyle;rounded=0;orthogonalLoop=1;jettySize=auto;html=1;exitX=0.86;exitY=0.004;exitDx=0;exitDy=0;exitPerimeter=0;fillColor=#0050ef;strokeColor=#001DBC;" edge="1" parent="1" source="GvEmqiyRO5GbLfrJit3r-35">
          <mxGeometry relative="1" as="geometry">
            <mxPoint x="320" y="465" as="targetPoint" />
            <Array as="points">
              <mxPoint x="1025" y="505" />
              <mxPoint x="290" y="505" />
              <mxPoint x="290" y="465" />
            </Array>
          </mxGeometry>
        </mxCell>
        <mxCell id="GvEmqiyRO5GbLfrJit3r-111" style="edgeStyle=orthogonalEdgeStyle;rounded=0;orthogonalLoop=1;jettySize=auto;html=1;entryX=-0.002;entryY=0.278;entryDx=0;entryDy=0;entryPerimeter=0;exitX=0;exitY=0.5;exitDx=0;exitDy=0;fillColor=#008a00;strokeColor=#005700;" edge="1" parent="1" source="GvEmqiyRO5GbLfrJit3r-67" target="GvEmqiyRO5GbLfrJit3r-46">
          <mxGeometry relative="1" as="geometry" />
        </mxCell>
        <mxCell id="GvEmqiyRO5GbLfrJit3r-112" style="edgeStyle=orthogonalEdgeStyle;rounded=0;orthogonalLoop=1;jettySize=auto;html=1;entryX=0;entryY=0.8;entryDx=0;entryDy=0;entryPerimeter=0;exitX=0;exitY=0.5;exitDx=0;exitDy=0;fillColor=#008a00;strokeColor=#005700;" edge="1" parent="1" source="GvEmqiyRO5GbLfrJit3r-80" target="GvEmqiyRO5GbLfrJit3r-46">
          <mxGeometry relative="1" as="geometry">
            <Array as="points">
              <mxPoint x="280" y="890" />
              <mxPoint x="280" y="695" />
            </Array>
          </mxGeometry>
        </mxCell>
      </root>
    </mxGraphModel>
  </diagram>
</mxfile>
